<svg width="576" height="237" viewBox="0 0 576 237" fill="none" xmlns="http://www.w3.org/2000/svg">
<rect width="576" height="237" fill="#1E1E1E"></rect>
<ellipse cx="118.5" cy="119" rx="51.5" ry="50" fill="#D9D9D9"></ellipse>
<line x1="118.5" y1="55" x2="118.5" stroke="white"></line>
<line x1="118.5" y1="237" x2="118.5" y2="182" stroke="white"></line>
<line x1="180" y1="117.5" x2="237" y2="117.5" stroke="white"></line>
<line y1="117.5" x2="57" y2="117.5" stroke="white"></line>
<line y1="-0.5" x2="34.2389" y2="-0.5" transform="matrix(0.733366 -0.679834 0.708647 0.705564 162.552 78.7179)" stroke="#FEFEFE"></line>
<line y1="-0.5" x2="34.2389" y2="-0.5" transform="matrix(0.733366 -0.679834 0.708647 0.705564 47.1357 192.139)" stroke="white"></line>
<line y1="-0.5" x2="34.4694" y2="-0.5" transform="matrix(0.838873 0.544327 -0.575126 0.818065 43.171 60.0964)" stroke="white"></line>
<line y1="-0.5" x2="34.4694" y2="-0.5" transform="matrix(0.838873 0.544327 -0.575126 0.818065 162.552 168.863)" stroke="white"></line>
<path d="M307.114 87.75H297.159C296.977 86.4621 296.606 85.3182 296.045 84.3182C295.485 83.303 294.765 82.4394 293.886 81.7273C293.008 81.0151 291.992 80.4697 290.841 80.0909C289.705 79.7121 288.47 79.5227 287.136 79.5227C284.727 79.5227 282.629 80.1212 280.841 81.3182C279.053 82.5 277.667 84.2273 276.682 86.5C275.697 88.7576 275.205 91.5 275.205 94.7273C275.205 98.0455 275.697 100.833 276.682 103.091C277.682 105.348 279.076 107.053 280.864 108.205C282.652 109.356 284.72 109.932 287.068 109.932C288.386 109.932 289.606 109.758 290.727 109.409C291.864 109.061 292.871 108.553 293.75 107.886C294.629 107.205 295.356 106.379 295.932 105.409C296.523 104.439 296.932 103.333 297.159 102.091L307.114 102.136C306.856 104.273 306.212 106.333 305.182 108.318C304.167 110.288 302.795 112.053 301.068 113.614C299.356 115.159 297.311 116.386 294.932 117.295C292.568 118.189 289.894 118.636 286.909 118.636C282.758 118.636 279.045 117.697 275.773 115.818C272.515 113.939 269.939 111.22 268.045 107.659C266.167 104.098 265.227 99.7879 265.227 94.7273C265.227 89.6515 266.182 85.3333 268.091 81.7727C270 78.2121 272.591 75.5 275.864 73.6364C279.136 71.7576 282.818 70.8182 286.909 70.8182C289.606 70.8182 292.106 71.197 294.409 71.9545C296.727 72.7121 298.78 73.8182 300.568 75.2727C302.356 76.7121 303.811 78.4773 304.932 80.5682C306.068 82.6591 306.795 85.053 307.114 87.75ZM323.943 118.659C321.716 118.659 319.731 118.273 317.989 117.5C316.246 116.712 314.867 115.553 313.852 114.023C312.852 112.477 312.352 110.553 312.352 108.25C312.352 106.311 312.708 104.682 313.42 103.364C314.133 102.045 315.102 100.985 316.33 100.182C317.557 99.3788 318.951 98.7727 320.511 98.3636C322.087 97.9545 323.739 97.6667 325.466 97.5C327.496 97.2879 329.133 97.0909 330.375 96.9091C331.617 96.7121 332.519 96.4242 333.08 96.0455C333.64 95.6667 333.92 95.1061 333.92 94.3636V94.2273C333.92 92.7879 333.466 91.6742 332.557 90.8864C331.663 90.0985 330.39 89.7045 328.739 89.7045C326.996 89.7045 325.61 90.0909 324.58 90.8636C323.549 91.6212 322.867 92.5758 322.534 93.7273L313.58 93C314.034 90.8788 314.928 89.0455 316.261 87.5C317.595 85.9394 319.314 84.7424 321.42 83.9091C323.542 83.0606 325.996 82.6364 328.784 82.6364C330.723 82.6364 332.58 82.8636 334.352 83.3182C336.14 83.7727 337.723 84.4773 339.102 85.4318C340.496 86.3864 341.595 87.6136 342.398 89.1136C343.201 90.5985 343.602 92.3788 343.602 94.4545V118H334.42V113.159H334.148C333.587 114.25 332.837 115.212 331.898 116.045C330.958 116.864 329.83 117.508 328.511 117.977C327.193 118.432 325.67 118.659 323.943 118.659ZM326.716 111.977C328.14 111.977 329.398 111.697 330.489 111.136C331.58 110.561 332.436 109.788 333.057 108.818C333.678 107.848 333.989 106.75 333.989 105.523V101.818C333.686 102.015 333.269 102.197 332.739 102.364C332.223 102.515 331.64 102.659 330.989 102.795C330.337 102.917 329.686 103.03 329.034 103.136C328.383 103.227 327.792 103.311 327.261 103.386C326.125 103.553 325.133 103.818 324.284 104.182C323.436 104.545 322.777 105.038 322.307 105.659C321.837 106.265 321.602 107.023 321.602 107.932C321.602 109.25 322.08 110.258 323.034 110.955C324.004 111.636 325.231 111.977 326.716 111.977ZM325.67 78.5909L330.489 68.25H339.443L332.511 78.5909H325.67ZM363.977 118.568C361.326 118.568 358.924 117.886 356.773 116.523C354.636 115.144 352.939 113.121 351.682 110.455C350.439 107.773 349.818 104.485 349.818 100.591C349.818 96.5909 350.462 93.2652 351.75 90.6136C353.038 87.947 354.75 85.9545 356.886 84.6364C359.038 83.303 361.394 82.6364 363.955 82.6364C365.909 82.6364 367.538 82.9697 368.841 83.6364C370.159 84.2879 371.22 85.1061 372.023 86.0909C372.841 87.0606 373.462 88.0152 373.886 88.9545H374.182V71.4545H383.841V118H374.295V112.409H373.886C373.432 113.379 372.788 114.341 371.955 115.295C371.136 116.235 370.068 117.015 368.75 117.636C367.447 118.258 365.856 118.568 363.977 118.568ZM367.045 110.864C368.606 110.864 369.924 110.439 371 109.591C372.091 108.727 372.924 107.523 373.5 105.977C374.091 104.432 374.386 102.621 374.386 100.545C374.386 98.4697 374.098 96.6667 373.523 95.1364C372.947 93.6061 372.114 92.4242 371.023 91.5909C369.932 90.7576 368.606 90.3409 367.045 90.3409C365.455 90.3409 364.114 90.7727 363.023 91.6364C361.932 92.5 361.106 93.697 360.545 95.2273C359.985 96.7576 359.705 98.5303 359.705 100.545C359.705 102.576 359.985 104.371 360.545 105.932C361.121 107.477 361.947 108.689 363.023 109.568C364.114 110.432 365.455 110.864 367.045 110.864ZM391.801 118V83.0909H401.483V118H391.801ZM396.665 78.5909C395.225 78.5909 393.991 78.1136 392.96 77.1591C391.945 76.1894 391.438 75.0303 391.438 73.6818C391.438 72.3485 391.945 71.2045 392.96 70.25C393.991 69.2803 395.225 68.7955 396.665 68.7955C398.104 68.7955 399.331 69.2803 400.347 70.25C401.377 71.2045 401.892 72.3485 401.892 73.6818C401.892 75.0303 401.377 76.1894 400.347 77.1591C399.331 78.1136 398.104 78.5909 396.665 78.5909ZM409.057 118V112.227L426.148 91.0682V90.8182H409.648V83.0909H437.807V89.3864L421.761 110.023V110.273H438.398V118H409.057Z" fill="white"></path>
<path d="M263.364 151L267.227 127.727H270.045L266.591 148.5H277.409L277 151H263.364ZM286.091 151.409C284.985 151.409 284.015 151.201 283.182 150.784C282.348 150.36 281.731 149.75 281.33 148.955C280.928 148.152 280.818 147.182 281 146.045C281.174 145.045 281.511 144.235 282.011 143.614C282.511 142.985 283.117 142.492 283.83 142.136C284.549 141.773 285.322 141.504 286.148 141.33C286.981 141.148 287.811 141.008 288.636 140.909C289.712 140.773 290.587 140.667 291.261 140.591C291.936 140.515 292.443 140.39 292.784 140.216C293.125 140.042 293.333 139.742 293.409 139.318V139.227C293.591 138.114 293.443 137.246 292.966 136.625C292.489 135.996 291.636 135.682 290.409 135.682C289.136 135.682 288.072 135.962 287.216 136.523C286.36 137.083 285.727 137.682 285.318 138.318L282.955 137.409C283.576 136.348 284.318 135.523 285.182 134.932C286.045 134.333 286.951 133.917 287.898 133.682C288.845 133.439 289.758 133.318 290.636 133.318C291.197 133.318 291.83 133.386 292.534 133.523C293.239 133.652 293.898 133.92 294.511 134.33C295.133 134.739 295.598 135.356 295.909 136.182C296.227 137.008 296.273 138.114 296.045 139.5L294.136 151H291.455L291.864 148.636H291.727C291.485 149.015 291.114 149.42 290.614 149.852C290.121 150.284 289.496 150.652 288.739 150.955C287.989 151.258 287.106 151.409 286.091 151.409ZM286.864 149C287.924 149 288.852 148.792 289.648 148.375C290.451 147.958 291.095 147.42 291.58 146.761C292.072 146.102 292.379 145.409 292.5 144.682L292.909 142.227C292.773 142.364 292.504 142.489 292.102 142.602C291.701 142.708 291.246 142.803 290.739 142.886C290.239 142.962 289.75 143.03 289.273 143.091C288.803 143.144 288.424 143.189 288.136 143.227C287.424 143.318 286.746 143.466 286.102 143.67C285.466 143.867 284.928 144.167 284.489 144.568C284.057 144.962 283.788 145.5 283.682 146.182C283.523 147.114 283.746 147.818 284.352 148.295C284.958 148.765 285.795 149 286.864 149ZM315.077 151.364C313.433 151.364 312.084 150.977 311.031 150.205C309.986 149.432 309.259 148.367 308.849 147.011C308.44 145.655 308.38 144.106 308.668 142.364C308.955 140.591 309.539 139.027 310.418 137.67C311.296 136.307 312.391 135.242 313.702 134.477C315.012 133.705 316.455 133.318 318.031 133.318C319.259 133.318 320.327 133.545 321.236 134C322.145 134.455 322.846 135.091 323.338 135.909C323.83 136.727 324.062 137.682 324.031 138.773H321.349C321.274 137.977 320.933 137.273 320.327 136.659C319.728 136.038 318.842 135.727 317.668 135.727C316.622 135.727 315.66 136 314.781 136.545C313.902 137.083 313.164 137.845 312.565 138.83C311.967 139.807 311.562 140.955 311.349 142.273C311.122 143.621 311.141 144.795 311.406 145.795C311.671 146.795 312.152 147.572 312.849 148.125C313.546 148.678 314.425 148.955 315.486 148.955C316.183 148.955 316.834 148.833 317.44 148.591C318.046 148.348 318.584 148 319.054 147.545C319.524 147.091 319.895 146.545 320.168 145.909H322.849C322.516 146.939 321.982 147.867 321.247 148.693C320.512 149.511 319.622 150.163 318.577 150.648C317.531 151.125 316.365 151.364 315.077 151.364ZM325.906 151L328.815 133.545H331.497L328.588 151H325.906ZM330.974 130.591C330.452 130.591 330.001 130.413 329.622 130.057C329.251 129.701 329.065 129.273 329.065 128.773C329.065 128.273 329.251 127.845 329.622 127.489C330.001 127.133 330.452 126.955 330.974 126.955C331.497 126.955 331.944 127.133 332.315 127.489C332.694 127.845 332.884 128.273 332.884 128.773C332.884 129.273 332.694 129.701 332.315 130.057C331.944 130.413 331.497 130.591 330.974 130.591ZM345.682 143.864L347.409 133.545H350.091L347.182 151H344.5L345 148.045H344.818C344.273 148.932 343.511 149.686 342.534 150.307C341.557 150.92 340.409 151.227 339.091 151.227C338 151.227 337.068 150.989 336.295 150.511C335.53 150.027 334.985 149.299 334.659 148.33C334.341 147.352 334.303 146.121 334.545 144.636L336.409 133.545H339.091L337.273 144.455C337.068 145.727 337.261 146.742 337.852 147.5C338.443 148.258 339.295 148.636 340.409 148.636C341.076 148.636 341.78 148.466 342.523 148.125C343.273 147.784 343.939 147.261 344.523 146.557C345.114 145.852 345.5 144.955 345.682 143.864ZM358.662 151.364C357.2 151.364 355.973 150.996 354.98 150.261C353.988 149.519 353.287 148.473 352.878 147.125C352.476 145.769 352.427 144.167 352.73 142.318C353.041 140.485 353.62 138.894 354.469 137.545C355.325 136.197 356.374 135.155 357.616 134.42C358.859 133.686 360.215 133.318 361.685 133.318C362.821 133.318 363.688 133.508 364.287 133.886C364.893 134.258 365.332 134.682 365.605 135.159C365.878 135.629 366.086 136.015 366.23 136.318H366.457L367.889 127.727H370.571L366.707 151H364.116L364.571 148.318H364.253C364.003 148.636 363.654 149.038 363.207 149.523C362.76 150 362.17 150.428 361.435 150.807C360.707 151.178 359.783 151.364 358.662 151.364ZM359.321 148.955C360.397 148.955 361.359 148.674 362.207 148.114C363.063 147.545 363.776 146.761 364.344 145.761C364.912 144.754 365.306 143.591 365.526 142.273C365.745 140.97 365.738 139.83 365.503 138.852C365.268 137.867 364.817 137.102 364.151 136.557C363.484 136.004 362.601 135.727 361.503 135.727C360.374 135.727 359.393 136.019 358.56 136.602C357.726 137.178 357.048 137.962 356.526 138.955C356.003 139.939 355.639 141.045 355.435 142.273C355.23 143.515 355.226 144.644 355.423 145.659C355.62 146.667 356.037 147.47 356.673 148.068C357.317 148.659 358.2 148.955 359.321 148.955ZM377.06 151.409C375.954 151.409 374.984 151.201 374.151 150.784C373.317 150.36 372.7 149.75 372.298 148.955C371.897 148.152 371.787 147.182 371.969 146.045C372.143 145.045 372.48 144.235 372.98 143.614C373.48 142.985 374.086 142.492 374.798 142.136C375.518 141.773 376.291 141.504 377.116 141.33C377.95 141.148 378.779 141.008 379.605 140.909C380.681 140.773 381.556 140.667 382.23 140.591C382.904 140.515 383.412 140.39 383.753 140.216C384.094 140.042 384.302 139.742 384.378 139.318V139.227C384.56 138.114 384.412 137.246 383.935 136.625C383.457 135.996 382.605 135.682 381.378 135.682C380.105 135.682 379.041 135.962 378.185 136.523C377.329 137.083 376.696 137.682 376.287 138.318L373.923 137.409C374.545 136.348 375.287 135.523 376.151 134.932C377.014 134.333 377.92 133.917 378.866 133.682C379.813 133.439 380.726 133.318 381.605 133.318C382.166 133.318 382.798 133.386 383.503 133.523C384.207 133.652 384.866 133.92 385.48 134.33C386.101 134.739 386.567 135.356 386.878 136.182C387.196 137.008 387.241 138.114 387.014 139.5L385.105 151H382.423L382.832 148.636H382.696C382.454 149.015 382.082 149.42 381.582 149.852C381.09 150.284 380.465 150.652 379.707 150.955C378.957 151.258 378.075 151.409 377.06 151.409ZM377.832 149C378.893 149 379.821 148.792 380.616 148.375C381.42 147.958 382.063 147.42 382.548 146.761C383.041 146.102 383.348 145.409 383.469 144.682L383.878 142.227C383.741 142.364 383.473 142.489 383.071 142.602C382.67 142.708 382.215 142.803 381.707 142.886C381.207 142.962 380.719 143.03 380.241 143.091C379.772 143.144 379.393 143.189 379.105 143.227C378.393 143.318 377.715 143.466 377.071 143.67C376.435 143.867 375.897 144.167 375.457 144.568C375.026 144.962 374.757 145.5 374.651 146.182C374.491 147.114 374.715 147.818 375.321 148.295C375.927 148.765 376.764 149 377.832 149ZM396.568 151.364C395.106 151.364 393.879 150.996 392.886 150.261C391.894 149.519 391.193 148.473 390.784 147.125C390.383 145.769 390.333 144.167 390.636 142.318C390.947 140.485 391.527 138.894 392.375 137.545C393.231 136.197 394.28 135.155 395.523 134.42C396.765 133.686 398.121 133.318 399.591 133.318C400.727 133.318 401.595 133.508 402.193 133.886C402.799 134.258 403.239 134.682 403.511 135.159C403.784 135.629 403.992 136.015 404.136 136.318H404.364L405.795 127.727H408.477L404.614 151H402.023L402.477 148.318H402.159C401.909 148.636 401.561 149.038 401.114 149.523C400.667 150 400.076 150.428 399.341 150.807C398.614 151.178 397.689 151.364 396.568 151.364ZM397.227 148.955C398.303 148.955 399.265 148.674 400.114 148.114C400.97 147.545 401.682 146.761 402.25 145.761C402.818 144.754 403.212 143.591 403.432 142.273C403.652 140.97 403.644 139.83 403.409 138.852C403.174 137.867 402.723 137.102 402.057 136.557C401.39 136.004 400.508 135.727 399.409 135.727C398.28 135.727 397.299 136.019 396.466 136.602C395.633 137.178 394.955 137.962 394.432 138.955C393.909 139.939 393.545 141.045 393.341 142.273C393.136 143.515 393.133 144.644 393.33 145.659C393.527 146.667 393.943 147.47 394.58 148.068C395.223 148.659 396.106 148.955 397.227 148.955ZM429.693 157.545L431.216 148.318H430.989C430.739 148.636 430.39 149.038 429.943 149.523C429.504 150 428.917 150.428 428.182 150.807C427.447 151.178 426.519 151.364 425.398 151.364C423.943 151.364 422.72 150.996 421.727 150.261C420.735 149.519 420.038 148.473 419.636 147.125C419.235 145.769 419.186 144.167 419.489 142.318C419.792 140.485 420.367 138.894 421.216 137.545C422.064 136.197 423.11 135.155 424.352 134.42C425.595 133.686 426.951 133.318 428.42 133.318C429.557 133.318 430.424 133.508 431.023 133.886C431.629 134.258 432.068 134.682 432.341 135.159C432.614 135.629 432.822 136.015 432.966 136.318H433.284L433.761 133.545H436.352L432.375 157.545H429.693ZM426.148 148.955C427.231 148.955 428.189 148.674 429.023 148.114C429.864 147.545 430.557 146.761 431.102 145.761C431.655 144.754 432.042 143.591 432.261 142.273C432.481 140.97 432.481 139.83 432.261 138.852C432.042 137.867 431.606 137.102 430.955 136.557C430.311 136.004 429.443 135.727 428.352 135.727C427.216 135.727 426.22 136.019 425.364 136.602C424.515 137.178 423.822 137.962 423.284 138.955C422.746 139.939 422.375 141.045 422.17 142.273C421.966 143.515 421.97 144.644 422.182 145.659C422.402 146.667 422.837 147.47 423.489 148.068C424.148 148.659 425.034 148.955 426.148 148.955ZM450.526 143.864L452.253 133.545H454.935L452.026 151H449.344L449.844 148.045H449.662C449.116 148.932 448.355 149.686 447.378 150.307C446.401 150.92 445.253 151.227 443.935 151.227C442.844 151.227 441.912 150.989 441.139 150.511C440.374 150.027 439.829 149.299 439.503 148.33C439.185 147.352 439.147 146.121 439.389 144.636L441.253 133.545H443.935L442.116 144.455C441.912 145.727 442.105 146.742 442.696 147.5C443.287 148.258 444.139 148.636 445.253 148.636C445.92 148.636 446.624 148.466 447.366 148.125C448.116 147.784 448.783 147.261 449.366 146.557C449.957 145.852 450.344 144.955 450.526 143.864ZM464.21 151.364C462.536 151.364 461.153 150.992 460.062 150.25C458.972 149.5 458.21 148.455 457.778 147.114C457.347 145.765 457.278 144.197 457.574 142.409C457.869 140.621 458.456 139.045 459.335 137.682C460.214 136.311 461.309 135.242 462.619 134.477C463.93 133.705 465.369 133.318 466.938 133.318C467.847 133.318 468.722 133.47 469.562 133.773C470.403 134.076 471.131 134.568 471.744 135.25C472.358 135.924 472.786 136.818 473.028 137.932C473.271 139.045 473.256 140.417 472.983 142.045L472.801 143.182H459.347L459.71 140.864H470.438C470.612 139.879 470.566 139 470.301 138.227C470.044 137.455 469.593 136.845 468.949 136.398C468.313 135.951 467.506 135.727 466.528 135.727C465.521 135.727 464.581 136 463.71 136.545C462.839 137.083 462.112 137.765 461.528 138.591C460.945 139.409 460.581 140.242 460.438 141.091L460.119 143.091C459.892 144.538 459.926 145.689 460.222 146.545C460.525 147.402 461.051 148.019 461.801 148.398C462.551 148.769 463.491 148.955 464.619 148.955C465.339 148.955 466.002 148.856 466.608 148.659C467.214 148.455 467.756 148.152 468.233 147.75C468.71 147.341 469.112 146.833 469.438 146.227L471.892 146.955C471.475 147.833 470.888 148.606 470.131 149.273C469.381 149.932 468.502 150.447 467.494 150.818C466.494 151.182 465.4 151.364 464.21 151.364ZM499.261 137.455L496.716 138.136C496.625 137.727 496.466 137.333 496.239 136.955C496.019 136.568 495.678 136.254 495.216 136.011C494.761 135.761 494.14 135.636 493.352 135.636C492.284 135.636 491.356 135.883 490.568 136.375C489.78 136.86 489.33 137.477 489.216 138.227C489.102 138.886 489.254 139.413 489.67 139.807C490.087 140.201 490.784 140.523 491.761 140.773L494.261 141.409C495.761 141.795 496.83 142.375 497.466 143.148C498.11 143.913 498.33 144.909 498.125 146.136C497.958 147.136 497.523 148.03 496.818 148.818C496.114 149.606 495.212 150.227 494.114 150.682C493.015 151.136 491.792 151.364 490.443 151.364C488.648 151.364 487.231 150.977 486.193 150.205C485.155 149.424 484.602 148.295 484.534 146.818L487.216 146.182C487.284 147.114 487.617 147.818 488.216 148.295C488.822 148.765 489.67 149 490.761 149C492.011 149 493.053 148.735 493.886 148.205C494.72 147.667 495.193 147.023 495.307 146.273C495.42 145.659 495.299 145.148 494.943 144.739C494.595 144.33 493.989 144.023 493.125 143.818L490.352 143.136C488.807 142.75 487.723 142.159 487.102 141.364C486.489 140.568 486.284 139.568 486.489 138.364C486.655 137.379 487.08 136.508 487.761 135.75C488.451 134.992 489.314 134.398 490.352 133.966C491.398 133.534 492.534 133.318 493.761 133.318C495.489 133.318 496.78 133.697 497.636 134.455C498.492 135.205 499.034 136.205 499.261 137.455ZM508.548 151.364C506.942 151.364 505.598 150.981 504.514 150.216C503.431 149.451 502.666 148.379 502.219 147C501.779 145.621 501.707 144.015 502.003 142.182C502.291 140.394 502.863 138.837 503.719 137.511C504.582 136.178 505.654 135.148 506.935 134.42C508.223 133.686 509.639 133.318 511.185 133.318C512.791 133.318 514.132 133.705 515.207 134.477C516.291 135.242 517.056 136.318 517.503 137.705C517.95 139.083 518.026 140.697 517.73 142.545C517.442 144.318 516.863 145.867 515.991 147.193C515.128 148.511 514.056 149.538 512.776 150.273C511.503 151 510.094 151.364 508.548 151.364ZM508.594 148.955C509.821 148.955 510.885 148.64 511.787 148.011C512.696 147.383 513.431 146.553 513.991 145.523C514.56 144.492 514.942 143.379 515.139 142.182C515.321 141.045 515.313 139.989 515.116 139.011C514.92 138.027 514.499 137.235 513.855 136.636C513.211 136.03 512.306 135.727 511.139 135.727C509.912 135.727 508.84 136.045 507.923 136.682C507.014 137.318 506.279 138.155 505.719 139.193C505.158 140.231 504.783 141.348 504.594 142.545C504.412 143.682 504.416 144.739 504.605 145.716C504.802 146.686 505.223 147.47 505.866 148.068C506.518 148.659 507.427 148.955 508.594 148.955ZM524.847 140.5L523.119 151H520.438L523.347 133.545H525.938L525.483 136.273H525.71C526.256 135.386 526.994 134.674 527.926 134.136C528.858 133.591 529.983 133.318 531.301 133.318C532.468 133.318 533.453 133.561 534.256 134.045C535.066 134.523 535.638 135.25 535.972 136.227C536.313 137.197 536.362 138.424 536.119 139.909L534.256 151H531.574L533.392 140.091C533.619 138.727 533.441 137.659 532.858 136.886C532.282 136.114 531.369 135.727 530.119 135.727C529.256 135.727 528.456 135.913 527.722 136.284C526.994 136.655 526.377 137.197 525.869 137.909C525.369 138.621 525.028 139.485 524.847 140.5ZM539.156 151L542.065 133.545H544.656L544.202 136.182H544.384C544.838 135.318 545.531 134.617 546.463 134.08C547.395 133.542 548.384 133.273 549.429 133.273C549.634 133.273 549.88 133.277 550.168 133.284C550.455 133.284 550.679 133.295 550.838 133.318L550.384 136.045C550.293 136.023 550.088 135.989 549.77 135.943C549.452 135.89 549.111 135.864 548.747 135.864C547.899 135.864 547.115 136.042 546.395 136.398C545.675 136.746 545.073 137.231 544.588 137.852C544.103 138.466 543.793 139.167 543.656 139.955L541.838 151H539.156ZM551.125 151L554.034 133.545H556.716L553.807 151H551.125ZM554.58 131.136L558.216 125.864H561.352L556.943 131.136H554.58ZM565.991 151.364C564.317 151.364 562.935 150.992 561.844 150.25C560.753 149.5 559.991 148.455 559.56 147.114C559.128 145.765 559.06 144.197 559.355 142.409C559.651 140.621 560.238 139.045 561.116 137.682C561.995 136.311 563.09 135.242 564.401 134.477C565.711 133.705 567.151 133.318 568.719 133.318C569.628 133.318 570.503 133.47 571.344 133.773C572.185 134.076 572.912 134.568 573.526 135.25C574.139 135.924 574.567 136.818 574.81 137.932C575.052 139.045 575.037 140.417 574.764 142.045L574.582 143.182H561.128L561.491 140.864H572.219C572.393 139.879 572.348 139 572.082 138.227C571.825 137.455 571.374 136.845 570.73 136.398C570.094 135.951 569.287 135.727 568.31 135.727C567.302 135.727 566.363 136 565.491 136.545C564.62 137.083 563.893 137.765 563.31 138.591C562.726 139.409 562.363 140.242 562.219 141.091L561.901 143.091C561.673 144.538 561.707 145.689 562.003 146.545C562.306 147.402 562.832 148.019 563.582 148.398C564.332 148.769 565.272 148.955 566.401 148.955C567.12 148.955 567.783 148.856 568.389 148.659C568.995 148.455 569.537 148.152 570.014 147.75C570.491 147.341 570.893 146.833 571.219 146.227L573.673 146.955C573.257 147.833 572.67 148.606 571.912 149.273C571.162 149.932 570.283 150.447 569.276 150.818C568.276 151.182 567.181 151.364 565.991 151.364Z" fill="white"></path>
</svg>
